<svg width="701" height="484" viewBox="0 0 701 484" fill="none" xmlns="http://www.w3.org/2000/svg">
<path d="M97.1591 84.9091C96.3068 77.7121 92.8504 72.125 86.7898 68.1477C80.7292 64.1705 73.2955 62.1818 64.4886 62.1818C58.0492 62.1818 52.4148 63.2235 47.5852 65.3068C42.803 67.3901 39.0625 70.2547 36.3636 73.9006C33.7121 77.5464 32.3864 81.6894 32.3864 86.3295C32.3864 90.2121 33.3097 93.5502 35.1562 96.3438C37.0502 99.09 39.465 101.386 42.4006 103.233C45.3362 105.032 48.4138 106.524 51.6335 107.707C54.8532 108.844 57.8125 109.767 60.5114 110.477L75.2841 114.455C79.072 115.449 83.286 116.822 87.9261 118.574C92.6136 120.326 97.0881 122.717 101.349 125.747C105.658 128.73 109.209 132.565 112.003 137.253C114.796 141.94 116.193 147.693 116.193 154.511C116.193 162.371 114.134 169.473 110.014 175.818C105.942 182.163 99.9763 187.205 92.1165 190.946C84.304 194.687 74.8106 196.557 63.6364 196.557C53.2197 196.557 44.1998 194.876 36.5767 191.514C29.0009 188.152 23.035 183.465 18.679 177.452C14.3703 171.438 11.9318 164.455 11.3636 156.5H29.5455C30.0189 161.992 31.8655 166.538 35.0852 170.136C38.3523 173.687 42.4716 176.339 47.4432 178.091C52.4621 179.795 57.8598 180.648 63.6364 180.648C70.3598 180.648 76.3968 179.559 81.7472 177.381C87.0975 175.155 91.3352 172.078 94.4602 168.148C97.5852 164.17 99.1477 159.53 99.1477 154.227C99.1477 149.398 97.7983 145.468 95.0994 142.438C92.4006 139.407 88.8494 136.945 84.446 135.051C80.0426 133.157 75.2841 131.5 70.1705 130.08L52.2727 124.966C40.9091 121.699 31.9129 117.035 25.2841 110.974C18.6553 104.914 15.3409 96.983 15.3409 87.1818C15.3409 79.0379 17.5426 71.9356 21.946 65.875C26.3968 59.767 32.3627 55.0322 39.8438 51.6705C47.3722 48.2614 55.7765 46.5568 65.0568 46.5568C74.4318 46.5568 82.7652 48.2377 90.0568 51.5994C97.3485 54.9138 103.125 59.4593 107.386 65.2358C111.695 71.0123 113.968 77.5701 114.205 84.9091H97.1591ZM145.153 48.5455H166.175L215.607 169.284H217.312L266.744 48.5455H287.766V194H271.289V83.4886H269.869L224.414 194H208.505L163.05 83.4886H161.63V194H145.153V48.5455ZM329.048 194H310.582L363.991 48.5455H382.173L435.582 194H417.116L373.651 71.5568H372.514L329.048 194ZM335.866 137.182H410.298V152.807H335.866V137.182ZM458.239 194V48.5455H507.386C518.75 48.5455 528.078 50.4867 535.369 54.3693C542.661 58.2045 548.059 63.4839 551.562 70.2074C555.066 76.9309 556.818 84.5777 556.818 93.1477C556.818 101.718 555.066 109.317 551.562 115.946C548.059 122.575 542.685 127.783 535.44 131.571C528.196 135.312 518.939 137.182 507.67 137.182H467.898V121.273H507.102C514.867 121.273 521.117 120.136 525.852 117.864C530.634 115.591 534.091 112.371 536.222 108.205C538.4 103.991 539.489 98.9716 539.489 93.1477C539.489 87.3239 538.4 82.2339 536.222 77.8778C534.044 73.5218 530.563 70.16 525.781 67.7926C520.999 65.3778 514.678 64.1705 506.818 64.1705H475.852V194H458.239ZM526.705 128.659L562.5 194H542.045L506.818 128.659H526.705ZM578.214 64.1705V48.5455H687.305V64.1705H641.566V194H623.952V64.1705H578.214Z" fill="#047857"/>
<path d="M16.3658 426V251.455H131.934V281.881H53.2692V323.472H124.264V353.898H53.2692V426H16.3658ZM156.756 426V251.455H193.66V395.574H268.489V426H156.756ZM446.529 338.727C446.529 357.761 442.921 373.955 435.705 387.307C428.546 400.659 418.773 410.858 406.387 417.903C394.058 424.892 380.194 428.386 364.796 428.386C349.285 428.386 335.364 424.864 323.035 417.818C310.705 410.773 300.961 400.574 293.802 387.222C286.643 373.869 283.063 357.705 283.063 338.727C283.063 319.693 286.643 303.5 293.802 290.148C300.961 276.795 310.705 266.625 323.035 259.636C335.364 252.591 349.285 249.068 364.796 249.068C380.194 249.068 394.058 252.591 406.387 259.636C418.773 266.625 428.546 276.795 435.705 290.148C442.921 303.5 446.529 319.693 446.529 338.727ZM409.114 338.727C409.114 326.398 407.268 316 403.575 307.534C399.938 299.068 394.796 292.648 388.148 288.273C381.501 283.898 373.717 281.71 364.796 281.71C355.876 281.71 348.092 283.898 341.444 288.273C334.796 292.648 329.626 299.068 325.933 307.534C322.296 316 320.478 326.398 320.478 338.727C320.478 351.057 322.296 361.455 325.933 369.92C329.626 378.386 334.796 384.807 341.444 389.182C348.092 393.557 355.876 395.744 364.796 395.744C373.717 395.744 381.501 393.557 388.148 389.182C394.796 384.807 399.938 378.386 403.575 369.92C407.268 361.455 409.114 351.057 409.114 338.727ZM506.593 426L456.65 251.455H496.962L525.854 372.733H527.303L559.178 251.455H593.695L625.485 372.989H627.019L655.911 251.455H696.224L646.281 426H610.315L577.076 311.881H575.712L542.559 426H506.593Z" fill="#047857"/>
</svg>
